<svg xmlns="http://www.w3.org/2000/svg" width="33" height="26" viewBox="0 0 33 26" fill="none"> <path d="M16.2687 2.17733C16.1389 2.27991 16.0124 2.38579 15.888 2.49499C13.7693 4.35906 12.4285 7.10223 12.4285 10.1653C12.4285 13.2272 13.7693 15.9704 15.888 17.8344C16.0124 17.9436 16.1389 18.0495 16.2687 18.1532C16.3975 18.0495 16.5251 17.9436 16.6495 17.8344C18.7671 15.9704 20.109 13.2272 20.109 10.1653C20.109 7.10223 18.7671 4.35906 16.6495 2.49499C16.5251 2.38579 16.3975 2.27991 16.2687 2.17733ZM22.4819 0C20.4243 0 18.5096 0.625402 16.9168 1.69862C16.9975 1.76591 17.0804 1.83209 17.159 1.90158C19.5286 3.98515 20.8869 6.99745 20.8869 10.1653C20.8869 13.332 19.5286 16.3443 17.1601 18.4279C17.0804 18.4962 16.9975 18.5635 16.9168 18.6308C18.5096 19.704 20.4243 20.3305 22.4819 20.3305C28.035 20.3305 32.5364 15.7784 32.5364 10.1653C32.5364 4.55099 28.035 0 22.4819 0ZM15.3774 18.4279C15.456 18.4962 15.5389 18.5635 15.6207 18.6308C14.0268 19.704 12.1132 20.3305 10.0545 20.3305C4.50139 20.3305 0 15.7784 0 10.1653C0 4.55099 4.50139 0 10.0545 0C12.1132 0 14.0268 0.625402 15.6207 1.69862C15.5389 1.76591 15.456 1.83209 15.3774 1.90158C13.0089 3.98515 11.6506 6.99745 11.6506 10.1653C11.6506 13.3331 13.0089 16.3443 15.3774 18.4279ZM7.03029 24.0918C7.03029 23.6175 7.33795 23.2281 7.8398 23.2281C8.32092 23.2281 8.64495 23.6009 8.64495 24.0918C8.64495 24.5837 8.32092 24.9565 7.8398 24.9565C7.33795 24.9565 7.03029 24.5661 7.03029 24.0918ZM9.19153 24.0918V22.7428H8.61113V23.0704C8.42675 22.8277 8.14746 22.6744 7.7678 22.6744C7.01938 22.6744 6.43243 23.2678 6.43243 24.0918C6.43243 24.9168 7.01938 25.5091 7.7678 25.5091C8.14746 25.5091 8.42675 25.3569 8.61113 25.1143V25.4418H9.19153V24.0918ZM28.8063 24.0918C28.8063 23.6175 29.114 23.2281 29.6169 23.2281C30.0969 23.2281 30.421 23.6009 30.421 24.0918C30.421 24.5837 30.0969 24.9565 29.6169 24.9565C29.114 24.9565 28.8063 24.5661 28.8063 24.0918ZM30.9675 24.0918V21.6586H30.3871V23.0704C30.2028 22.8277 29.9235 22.6744 29.5438 22.6744C28.7954 22.6744 28.2084 23.2678 28.2084 24.0918C28.2084 24.9168 28.7954 25.5091 29.5438 25.5091C29.9235 25.5091 30.2028 25.3569 30.3871 25.1143V25.4418H30.9675V24.0918ZM16.3964 23.2005C16.7706 23.2005 17.0106 23.4377 17.0728 23.8546H15.6872C15.7483 23.4653 15.9829 23.2005 16.3964 23.2005ZM16.4084 22.6744C15.6261 22.6744 15.0785 23.2513 15.0785 24.0918C15.0785 24.951 15.648 25.5091 16.4466 25.5091C16.8491 25.5091 17.2179 25.4077 17.5419 25.1308L17.2572 24.6962C17.0335 24.8771 16.7488 24.9786 16.4804 24.9786C16.1062 24.9786 15.7658 24.8032 15.6818 24.3179H17.6641C17.6696 24.2451 17.6761 24.1712 17.6761 24.0918C17.6696 23.2513 17.1557 22.6744 16.4084 22.6744ZM23.4169 24.0918C23.4169 23.6175 23.7245 23.2281 24.2264 23.2281C24.7075 23.2281 25.0315 23.6009 25.0315 24.0918C25.0315 24.5837 24.7075 24.9565 24.2264 24.9565C23.7245 24.9565 23.4169 24.5661 23.4169 24.0918ZM25.5781 24.0918V22.7428H24.9977V23.0704C24.8133 22.8277 24.534 22.6744 24.1544 22.6744C23.4059 22.6744 22.819 23.2678 22.819 24.0918C22.819 24.9168 23.4059 25.5091 24.1544 25.5091C24.534 25.5091 24.8133 25.3569 24.9977 25.1143V25.4418H25.5781V24.0918ZM20.1384 24.0918C20.1384 24.9113 20.7025 25.5091 21.5633 25.5091C21.9648 25.5091 22.2331 25.4198 22.5233 25.1882L22.244 24.7139C22.0269 24.8716 21.7978 24.9565 21.5458 24.9565C21.0821 24.951 20.7418 24.6113 20.7418 24.0918C20.7418 23.5723 21.0821 23.2336 21.5458 23.2281C21.7978 23.2281 22.0269 23.3131 22.244 23.4708L22.5233 22.9965C22.2331 22.7649 21.9648 22.6744 21.5633 22.6744C20.7025 22.6744 20.1384 23.2733 20.1384 24.0918ZM27.6226 22.6744C27.2877 22.6744 27.0695 22.8332 26.9189 23.0704V22.7428H26.344V25.4418H26.9244V23.9285C26.9244 23.4829 27.1142 23.2336 27.4939 23.2336C27.6117 23.2336 27.7339 23.2513 27.8571 23.302L28.0361 22.7483C27.9073 22.6976 27.7393 22.6744 27.6226 22.6744ZM12.063 22.9568C11.7837 22.7704 11.3975 22.6744 10.9731 22.6744C10.2978 22.6744 9.86248 23.002 9.86248 23.5392C9.86248 23.9793 10.1854 24.2506 10.7833 24.3344L11.0571 24.3741C11.3757 24.4194 11.5262 24.5043 11.5262 24.6565C11.5262 24.8661 11.3146 24.9841 10.9175 24.9841C10.516 24.9841 10.2247 24.8551 10.0294 24.7017L9.75557 25.1595C10.0741 25.3966 10.4767 25.5091 10.912 25.5091C11.6822 25.5091 12.1295 25.1429 12.1295 24.6289C12.1295 24.1546 11.7782 23.9054 11.1968 23.8215L10.9229 23.7818C10.672 23.7476 10.4713 23.6969 10.4713 23.516C10.4713 23.3186 10.6611 23.2005 10.9796 23.2005C11.32 23.2005 11.6495 23.3296 11.811 23.4311L12.063 22.9568ZM19.5526 22.6744C19.2177 22.6744 18.9995 22.8332 18.8489 23.0704V22.7428H18.2729V25.4418H18.8544V23.9285C18.8544 23.4829 19.0442 23.2336 19.4239 23.2336C19.5406 23.2336 19.6639 23.2513 19.7872 23.302L19.965 22.7483C19.8373 22.6976 19.6693 22.6744 19.5526 22.6744ZM14.5984 22.7428H13.6493V21.9244H13.0623V22.7428H12.5201V23.2789H13.0623V24.5098C13.0623 25.1374 13.3024 25.5091 13.9897 25.5091C14.2406 25.5091 14.5308 25.4308 14.7152 25.3007L14.5483 24.7977C14.3748 24.8992 14.185 24.951 14.0344 24.951C13.7431 24.951 13.6493 24.7701 13.6493 24.4988V23.2789H14.5984V22.7428ZM5.91858 25.4418V23.7476C5.91858 23.1101 5.5171 22.681 4.86906 22.6744C4.52867 22.6689 4.17628 22.777 3.93081 23.1553C3.74643 22.8553 3.45623 22.6744 3.04821 22.6744C2.76346 22.6744 2.48417 22.7593 2.26597 23.0759V22.7428H1.68557V25.4418H2.27143V23.9451C2.27143 23.4763 2.5289 23.2281 2.92492 23.2281C3.31113 23.2281 3.50642 23.4829 3.50642 23.9396V25.4418H4.09228V23.9451C4.09228 23.4763 4.36066 23.2281 4.74577 23.2281C5.14289 23.2281 5.33272 23.4829 5.33272 23.9396V25.4418H5.91858Z" fill="#475569"/> <script xmlns=""/></svg>