<svg xmlns="http://www.w3.org/2000/svg" width="45" height="13" viewBox="0 0 45 13" fill="none"> <path fill-rule="evenodd" clip-rule="evenodd" d="M4.15883 0.0020934C4.56061 -0.000310233 5.7547 -0.107856 6.26049 1.59919C6.6012 2.74908 7.14392 4.63264 7.88867 7.24989H8.19197C8.99064 4.49061 9.53929 2.60704 9.83791 1.59919C10.349 -0.125638 11.6266 0.0021272 12.1377 0.0021272L16.0806 0.00213212V12.2676H12.0619V5.03934H11.7924L9.55212 12.2676H6.52851L4.28825 5.03398H4.01877V12.2676H0V0.00213212L4.15883 0.0020934ZM21.8515 0.00213212V7.23573H22.1721L24.8972 1.28759C25.4262 0.103898 26.5536 0.00213212 26.5536 0.00213212H30.4426V12.2676H26.3399V5.03398H26.0193L23.3476 10.9821C22.8186 12.1605 21.6378 12.2676 21.6378 12.2676H17.7488V0.00213212H21.8515ZM44.6233 5.83075C44.051 7.45247 42.2538 8.61389 40.2641 8.61389H35.9616V12.2676H32.0602V5.83075H44.6233Z" fill="#FAFAFA"/> <path fill-rule="evenodd" clip-rule="evenodd" d="M40.4521 0.00292969H31.8555C32.0601 2.73363 34.4117 5.0713 36.8461 5.0713H44.8943C45.3587 2.80176 43.7599 0.00292969 40.4521 0.00292969Z" fill="#475569"/> <script xmlns=""/></svg>