<svg xmlns="http://www.w3.org/2000/svg" width="52" height="17" viewBox="0 0 52 17" fill="none"> <path d="M22.4533 16.5274H18.2559L20.8812 0.293945H25.0785L22.4533 16.5274Z" fill="#FAFAFA"/> <path d="M37.6693 0.691121C36.8414 0.362661 35.5283 0 33.9046 0C29.7594 0 26.8405 2.21039 26.8226 5.37059C26.7881 7.70218 28.9125 8.9972 30.5013 9.77462C32.1252 10.569 32.6772 11.0875 32.6772 11.7957C32.6607 12.8832 31.365 13.3845 30.1565 13.3845C28.4807 13.3845 27.5828 13.126 26.2182 12.521L25.6655 12.2616L25.0781 15.9057C26.0626 16.3542 27.8763 16.7522 29.7594 16.7696C34.1637 16.7696 37.031 14.5934 37.065 11.2257C37.0817 9.37776 35.96 7.96178 33.5417 6.80471C32.0736 6.06194 31.1745 5.5611 31.1745 4.80112C31.1917 4.11023 31.9349 3.40258 33.5922 3.40258C34.9567 3.36792 35.9593 3.69593 36.7188 4.02416L37.0985 4.19653L37.6693 0.691121V0.691121Z" fill="#FAFAFA"/> <path d="M43.2481 10.7764C43.5937 9.84386 44.9239 6.23446 44.9239 6.23446C44.9064 6.26912 45.2689 5.28466 45.4761 4.6803L45.7695 6.07907C45.7695 6.07907 46.5643 9.96482 46.7369 10.7764C46.0809 10.7764 44.0771 10.7764 43.2481 10.7764ZM48.4293 0.293945H45.1826C44.1813 0.293945 43.4207 0.587287 42.9887 1.64084L36.7539 16.5271H41.1582C41.1582 16.5271 41.8833 14.5236 42.0391 14.092C42.5223 14.092 46.8067 14.092 47.4283 14.092C47.5488 14.662 47.9291 16.5271 47.9291 16.5271H51.8156L48.4293 0.293945V0.293945Z" fill="#FAFAFA"/> <path d="M14.7499 0.293945L10.6392 11.3636L10.19 9.11853C9.43 6.52804 7.04654 3.71351 4.38672 2.31406L8.15196 16.5102H12.5907L19.1883 0.293945H14.7499V0.293945Z" fill="#FAFAFA"/> <path d="M6.82238 0.293945H0.0690888L0 0.621946C5.26799 1.96907 8.75688 5.21626 10.1903 9.11922L8.72222 1.65851C8.48052 0.621717 7.73775 0.328146 6.82238 0.293945Z" fill="#475569"/> <script xmlns=""/></svg>